<svg width="48" height="49" viewBox="0 0 48 49" fill="none" xmlns="http://www.w3.org/2000/svg">
<path d="M33.6666 47.5831V39.0368C33.7526 37.9838 33.6049 36.9252 33.2335 35.9315C32.8621 34.9377 32.2754 34.0315 31.5124 33.2731C38.7083 32.5002 46.2708 29.8723 46.2708 17.8148C46.2702 14.7315 45.0394 11.7666 42.8333 9.53351C43.8779 6.83605 43.8041 3.85445 42.627 1.20809C42.627 1.20809 39.9228 0.435177 33.6666 4.47643C28.4141 3.10466 22.8774 3.10466 17.6249 4.47643C11.3687 0.435177 8.6645 1.20809 8.6645 1.20809C7.48745 3.85445 7.41358 6.83605 8.45825 9.53351C6.23563 11.7831 5.00362 14.7749 5.02075 17.881C5.02075 29.8502 12.5833 32.4781 19.7791 33.3393C19.0251 34.0901 18.4436 34.9854 18.0725 35.9671C17.7014 36.9487 17.5489 37.9947 17.6249 39.0368V47.5831M17.6249 40.9581C6.16659 44.2706 6.16659 35.4373 1.58325 34.3331L17.6249 40.9581Z" stroke="#F1FAEE" stroke-width="2" stroke-linecap="round" stroke-linejoin="round"/>
</svg>
