<svg width="30" height="30" viewBox="0 0 30 30" fill="none" xmlns="http://www.w3.org/2000/svg">
<path fill-rule="evenodd" clip-rule="evenodd" d="M1.75391 14.9996C1.75391 7.6842 7.6842 1.75391 14.9996 1.75391C22.3149 1.75391 28.2453 7.6842 28.2453 14.9996C28.2453 22.3148 22.3149 28.2452 14.9996 28.2452C7.6842 28.2452 1.75391 22.3148 1.75391 14.9996ZM14.9996 3.6539C8.73354 3.6539 3.6539 8.73354 3.6539 14.9996C3.6539 17.9437 4.77536 20.626 6.61442 22.6424C8.38136 19.8822 11.4762 18.0498 15.0003 18.0498C18.524 18.0498 21.6185 19.8818 23.3857 22.6414C25.2241 20.6252 26.3453 17.9433 26.3453 14.9996C26.3453 8.73354 21.2655 3.6539 14.9996 3.6539ZM21.9635 23.9572C20.5677 21.5588 17.9713 19.9498 15.0003 19.9498C12.029 19.9498 9.43236 21.5592 8.03678 23.958C9.95892 25.4542 12.3752 26.3452 14.9996 26.3452C17.6244 26.3452 20.0411 25.4538 21.9635 23.9572ZM10.2999 13.0096C10.2999 10.4138 12.4041 8.30956 14.9999 8.30956C17.5956 8.30956 19.6999 10.4138 19.6999 13.0096C19.6999 15.6053 17.5956 17.7096 14.9999 17.7096C12.4041 17.7096 10.2999 15.6053 10.2999 13.0096ZM14.9999 10.2096C13.4535 10.2096 12.1999 11.4632 12.1999 13.0096C12.1999 14.556 13.4535 15.8096 14.9999 15.8096C16.5463 15.8096 17.7999 14.556 17.7999 13.0096C17.7999 11.4632 16.5463 10.2096 14.9999 10.2096Z" fill="black"/>
</svg>
